HIERARCHY
ROOT Pelvis
{
	OFFSET 0.000000 0.000000 0.000000
	CHANNELS 6 Xposition Yposition Zposition Xrotation Yrotation Zrotation
	JOINT LeftUpLeg_virtual
	{
		OFFSET 0.000000 0.000000 0.000000
		CHANNELS 3 Xrotation Yrotation Zrotation
		JOINT LeftUpLeg
		{
			OFFSET 18.735201 -5.666702 -4.541200
			CHANNELS 3 Xrotation Yrotation Zrotation
			JOINT LeftLeg
			{
				OFFSET -0.021200 -31.938179 0.493100
				CHANNELS 3 Xrotation Yrotation Zrotation
				JOINT LeftFoot
				{
					OFFSET 0.021200 -31.938179 -4.336299
					CHANNELS 3 Xrotation Yrotation Zrotation
					JOINT LeftToeBase
					{
						OFFSET 0.943001 -26.722000 15.023500
						CHANNELS 3 Xrotation Yrotation Zrotation
						End Site
						{
							OFFSET 0 0 0
						}
					}
				}
			}
		}
	}
	JOINT RightUpLeg_virtual
	{
		OFFSET 0.000000 0.000000 0.000000
		CHANNELS 3 Xrotation Yrotation Zrotation
		JOINT RightUpLeg
		{
			OFFSET -18.735201 -5.666702 -4.541200
			CHANNELS 3 Xrotation Yrotation Zrotation
			JOINT RightLeg
			{
				OFFSET 0.018946 -31.938133 0.493100
				CHANNELS 3 Xrotation Yrotation Zrotation
				JOINT RightFoot
				{
					OFFSET -0.018946 -31.938126 -4.336299
					CHANNELS 3 Xrotation Yrotation Zrotation
					JOINT RightToeBase
					{
						OFFSET -0.943001 -26.722004 15.023500
						CHANNELS 3 Xrotation Yrotation Zrotation
						End Site
						{
							OFFSET 0 0 0
						}
					}
				}
			}
		}
	}
	JOINT Hips_virtual
	{
		OFFSET 0.000000 0.000000 0.000000
		CHANNELS 3 Xrotation Yrotation Zrotation
		JOINT Hips
		{
			OFFSET -0.000000 -0.000000 -0.000000
			CHANNELS 3 Xrotation Yrotation Zrotation
			JOINT Spine
			{
				OFFSET 0.000000 10.199997 -0.299500
				CHANNELS 3 Xrotation Yrotation Zrotation
				JOINT Spine1
				{
					OFFSET 0.000000 11.900002 -1.516600
					CHANNELS 3 Xrotation Yrotation Zrotation
					JOINT Spine2
					{
						OFFSET 0.000000 13.600006 -2.842500
						CHANNELS 3 Xrotation Yrotation Zrotation
						JOINT Neck_virtual
						{
							OFFSET 0.000000 0.000000 0.000000
							CHANNELS 3 Xrotation Yrotation Zrotation
							JOINT Neck
							{
								OFFSET 0.000000 9.624100 -2.890100
								CHANNELS 3 Xrotation Yrotation Zrotation
								JOINT Head
								{
									OFFSET 0.000000 14.068802 -1.351900
									CHANNELS 3 Xrotation Yrotation Zrotation
									End Site
									{
										OFFSET 0 0 0
									}
								}
							}
						}
						JOINT LeftShoulder_virtual
						{
							OFFSET 0.000000 0.000000 0.000000
							CHANNELS 3 Xrotation Yrotation Zrotation
							JOINT LeftShoulder
							{
								OFFSET 15.263000 10.923401 -0.547700
								CHANNELS 3 Xrotation Yrotation Zrotation
								JOINT LeftArm
								{
									OFFSET 25.438599 -2.830597 -13.032500
									CHANNELS 3 Xrotation Yrotation Zrotation
									JOINT LeftForeArm
									{
										OFFSET 29.960503 0.000000 0.000000
										CHANNELS 3 Xrotation Yrotation Zrotation
										JOINT LeftHand
										{
											OFFSET 27.849251 0.000000 0.000000
											CHANNELS 3 Xrotation Yrotation Zrotation
											End Site
											{
												OFFSET 0 0 0
											}
										}
									}
								}
							}
						}
						JOINT RightShoulder_virtual
						{
							OFFSET 0.000000 0.000000 0.000000
							CHANNELS 3 Xrotation Yrotation Zrotation
							JOINT RightShoulder
							{
								OFFSET -15.263000 10.923401 -0.547700
								CHANNELS 3 Xrotation Yrotation Zrotation
								JOINT RightArm
								{
									OFFSET -25.438599 -2.830597 -13.032500
									CHANNELS 3 Xrotation Yrotation Zrotation
									JOINT RightForeArm
									{
										OFFSET -29.960503 0.000000 0.000000
										CHANNELS 3 Xrotation Yrotation Zrotation
										JOINT RightHand
										{
											OFFSET -27.849251 0.000000 0.000000
											CHANNELS 3 Xrotation Yrotation Zrotation
											End Site
											{
												OFFSET 0 0 0
											}
										}
									}
								}
							}
						}
					}
				}
			}
		}
	}
}
MOTION
Frames: 6
Frame Time: 0.03333333
-0.140421 77.434624 3.890022 0.000000 0.000000 0.000000 13.759087 1.050769 -1.096187 -56.848508 2.863140 4.443724 76.068220 6.836119 0.399822 -30.947235 7.483424 -4.301843 0.000000 0.000000 0.000000 13.167904 2.313104 -1.387954 -52.467662 -14.188757 -4.630856 78.957731 -7.979772 -5.289938 -41.732767 -10.195546 3.167228 0.000000 0.000000 0.000000 13.447229 2.267518 -1.036415 -1.015952 -0.082569 -1.271025 10.880743 1.616219 1.443518 8.090482 0.977892 0.245209 0.000000 0.000000 0.000000 6.821497 1.066949 -0.055935 -4.623448 -0.540598 3.271790 0.000000 0.000000 0.000000 7.233347 1.115567 -0.346394 3.586329 -26.638754 5.697094 -66.130957 -24.495586 -69.099992 -178.880824 -73.238821 -178.833641 0.000000 0.000000 0.000000 7.078715 1.366719 -0.064614 0.840473 12.587572 10.875144 -59.246379 44.673552 51.820587 -178.865169 70.811180 179.375849 0.000000 0.000000 0.000000 
-0.134676 77.436394 3.900551 0.000000 0.000000 0.000000 13.766164 1.043844 -1.101733 -56.851602 2.860594 4.441982 76.077345 6.840930 0.400146 -30.964960 7.485213 -4.292209 0.000000 0.000000 0.000000 13.177196 2.305246 -1.394004 -52.472484 -14.180118 -4.636160 78.971515 -7.978184 -5.292413 -41.715380 -10.191103 3.179811 0.000000 0.000000 0.000000 13.454575 2.267705 -1.043594 -1.022857 -0.081464 -1.283080 10.877034 1.621355 1.439290 8.087336 0.982301 0.238623 0.000000 0.000000 0.000000 6.818185 1.070102 -0.060167 -4.624091 -0.539291 3.276389 0.000000 0.000000 0.000000 7.226551 1.118727 -0.350714 3.585458 -26.652631 5.682828 -66.180271 -24.526262 -69.120579 -178.854514 -73.176488 -178.815951 0.000000 0.000000 0.000000 7.067261 1.369219 -0.071564 0.843931 12.585058 10.876888 -59.335417 44.752120 51.873105 -178.837561 70.638335 179.344225 0.000000 0.000000 0.000000 
-0.121773 77.436440 3.918015 0.000000 0.000000 0.000000 13.778628 1.034481 -1.121362 -56.863668 2.858969 4.447889 76.106810 6.847595 0.400128 -30.990515 7.491858 -4.275148 0.000000 0.000000 0.000000 13.196250 2.295023 -1.414988 -52.482211 -14.176590 -4.640860 78.980892 -7.976583 -5.292770 -41.691454 -10.184642 3.196843 0.000000 0.000000 0.000000 13.468340 2.265410 -1.064154 -1.026448 -0.081981 -1.290387 10.863010 1.639686 1.434771 8.080540 0.997890 0.226992 0.000000 0.000000 0.000000 6.807582 1.085345 -0.070105 -4.629447 -0.539952 3.284796 0.000000 0.000000 0.000000 7.215209 1.133396 -0.361049 3.588615 -26.659528 5.687788 -66.260724 -24.557568 -69.153446 -178.813874 -73.099703 -178.789777 0.000000 0.000000 0.000000 7.053656 1.382481 -0.082078 0.841371 12.565077 10.908014 -59.358066 44.792685 51.858946 -178.783425 70.380496 179.288340 0.000000 0.000000 0.000000 
-0.104144 77.435951 3.938580 0.000000 0.000000 0.000000 13.795106 1.021839 -1.147833 -56.879462 2.857996 4.457880 76.146945 6.855346 0.399412 -31.019792 7.501219 -4.252396 0.000000 0.000000 0.000000 13.220555 2.282857 -1.444019 -52.492131 -14.176308 -4.642290 78.981282 -7.974800 -5.293149 -41.659619 -10.176808 3.217406 0.000000 0.000000 0.000000 13.487074 2.258997 -1.090267 -1.027043 -0.087734 -1.288669 10.843905 1.667280 1.430426 8.072377 1.021022 0.213172 0.000000 0.000000 0.000000 6.791913 1.108363 -0.082828 -4.639391 -0.542496 3.294354 0.000000 0.000000 0.000000 7.203888 1.155620 -0.374359 3.596161 -26.659605 5.710733 -66.343089 -24.590300 -69.196783 -178.763618 -73.056728 -178.754698 0.000000 0.000000 0.000000 7.043602 1.404347 -0.093175 0.834347 12.536185 10.955681 -59.339898 44.795639 51.815232 -178.717173 70.172414 179.219888 0.000000 0.000000 0.000000 
-0.082964 77.435417 3.958851 0.000000 0.000000 0.000000 13.813351 1.002427 -1.171505 -56.891053 2.858037 4.464650 76.184825 6.862649 0.398541 -31.048729 7.510669 -4.228180 0.000000 0.000000 0.000000 13.245036 2.265810 -1.470088 -52.496393 -14.175124 -4.641604 78.970914 -7.972790 -5.295160 -41.631055 -10.168762 3.238410 0.000000 0.000000 0.000000 13.506231 2.244261 -1.112448 -1.025042 -0.090118 -1.283194 10.824252 1.697965 1.424670 8.063030 1.046434 0.200760 0.000000 0.000000 0.000000 6.775309 1.132948 -0.095081 -4.652078 -0.545748 3.302283 0.000000 0.000000 0.000000 7.194771 1.180342 -0.386327 3.606076 -26.652636 5.745396 -66.407395 -24.624005 -69.244690 -178.707679 -73.078018 -178.710575 0.000000 0.000000 0.000000 7.037453 1.428890 -0.102371 0.824557 12.508192 11.001831 -59.323089 44.769732 51.775692 -178.662258 70.102029 179.159332 0.000000 0.000000 0.000000 
-0.062087 77.436592 3.977081 0.000000 0.000000 0.000000 13.830406 0.981427 -1.184163 -56.887867 2.861237 4.462076 76.203662 6.867204 0.399198 -31.075073 7.517224 -4.209248 0.000000 0.000000 0.000000 13.264250 2.248147 -1.484574 -52.491657 -14.170636 -4.641780 78.949952 -7.969906 -5.299559 -41.609816 -10.162813 3.261479 0.000000 0.000000 0.000000 13.522011 2.221878 -1.123148 -1.021643 -0.087462 -1.276719 10.811368 1.723794 1.417601 8.055517 1.066550 0.192812 0.000000 0.000000 0.000000 6.759698 1.151817 -0.103745 -4.664885 -0.548861 3.306842 0.000000 0.000000 0.000000 7.189984 1.199937 -0.393921 3.614621 -26.642372 5.779617 -66.445132 -24.640830 -69.280958 -178.658201 -73.152023 -178.668227 0.000000 0.000000 0.000000 7.034131 1.449520 -0.107718 0.816596 12.490928 11.036879 -59.319305 44.732449 51.742060 -178.626823 70.182776 179.114608 0.000000 0.000000 0.000000 
